# xmcd CD database file
#
# Track frame offsets:
#	150
#	33632
#	55204
#	71860
#	87598
#	106704
#	132446
#	146266
#	167394
#	186662
#	211264
#	244162
#	262553
#	285949
#	311161
#
# Disc length: 4441 seconds
#
# Revision: 1
# Processed by: cddbd v1.5.2PL0 Copyright (c) Steve Scherf et al.
# Submitted via: CDex 1.96
#
DISCID=d711570f
DTITLE=The Moody Blues - The Moody Blues
DYEAR=2013
DGENRE=Blues
TTITLE0=The Night
TTITLE1=Tuesday Afternoon (Forever Afternoon) (Full Version)
TTITLE2=Ride My See-Saw
TTITLE3=Voices In The Sky
TTITLE4=Watching And Waiting
TTITLE5=Question
TTITLE6=The Story In Your Eyes
TTITLE7=Lost In A Lost World
TTITLE8=I'm Just A Singer (In A Rock And Roll Band)
TTITLE9=Steppin' In A Slide Zone (Album Version)
TTITLE10=Talking Out Of Turn
TTITLE11=Gemini Dream (Full Version) - Moody Blues,The
TTITLE12=Blue World
TTITLE13=Sitting At The Wheel (Album Version)
TTITLE14=Your Wildest Dreams
EXTD=YEAR: 2013
EXTT0=
EXTT1=
EXTT2=
EXTT3=
EXTT4=
EXTT5=
EXTT6=
EXTT7=
EXTT8=
EXTT9=
EXTT10=
EXTT11=
EXTT12=
EXTT13=
EXTT14=
PLAYORDER=
